<svg width="75" height="74" viewBox="0 0 75 74" fill="none" xmlns="http://www.w3.org/2000/svg">
<path d="M2.34333 37.6167L2.09666 37.4934C1.54166 37.1851 1.11 36.7226 0.801664 36.1367C0.369998 35.3351 0.184998 34.5951 0.184998 33.8242L0.246664 33.4234C0.246664 32.8068 0.400831 32.2517 0.678331 31.7276L0.924998 31.2651C1.04833 31.0184 1.23333 30.8026 1.3875 30.5868C1.5725 30.3709 1.60333 30.0934 1.54166 29.8468L1.3875 29.3534C1.2025 28.7368 1.07916 28.1201 1.07916 27.5034L0.986664 27.1334C0.986664 26.4551 1.17166 25.7767 1.60333 25.2834L1.91166 24.8826C2.1275 24.5742 2.46666 24.3892 2.83666 24.2659C3.145 24.1734 3.36083 23.8651 3.39166 23.4951L3.45333 22.4468C3.45333 21.6143 3.85416 20.8434 4.47083 20.2884L5.21083 19.7334C5.365 19.5792 5.51917 19.4251 5.6425 19.1784C5.79666 18.9934 5.8275 18.7467 5.79666 18.5617C5.735 18.2534 5.79666 18.1609 5.95083 18.1301C6.44416 18.3151 6.7525 18.2534 6.96833 18.0068L7.36916 17.4826L8.47917 16.2492C8.7875 15.9409 8.91083 15.3859 8.72583 14.9542L8.35583 14.1526C8.29416 13.9676 8.35583 13.7517 8.51 13.6901C8.91083 13.6901 9.18833 13.8442 9.31166 14.0909L9.435 14.3067C9.62 14.6767 10.0517 14.8617 10.36 14.7076C11.0383 14.4609 11.5933 14.3992 12.1175 14.3992H13.1042C13.7825 14.3992 14.3375 13.9367 14.4608 13.2276C14.5842 12.3642 14.8925 11.6859 15.3242 11.2234C15.7867 10.6992 16.3108 10.2984 16.9275 9.99008C17.7292 9.55842 18.2225 8.94175 18.3767 8.14008C18.5925 7.15342 19.1167 6.44425 19.8258 5.98175L22.1692 4.65591L22.8475 4.25508C23.2483 4.00841 23.6183 3.70008 23.9267 3.33008L24.5433 2.59008C24.8517 2.28175 25.16 2.06591 25.53 1.97341C25.8383 1.88091 26.27 1.81925 26.64 1.85008L27.8733 1.94258C28.49 1.94258 28.9833 2.09675 29.4767 2.31258L29.785 2.46675C30.0933 2.59008 30.4017 2.52841 30.5558 2.31258L30.8333 2.15841L32.1592 0.770915C32.4675 0.462581 32.8375 0.339248 33.2383 0.400915C33.6392 0.462581 34.04 0.616748 34.41 0.801748C34.965 1.11008 35.4275 1.23341 35.9517 1.23341H36.26C36.9383 1.23341 37.6167 1.32591 38.295 1.48008L38.7575 1.60341C39.22 1.72675 39.6825 1.54175 39.9908 1.17175C40.0833 1.01758 40.2992 0.986748 40.4225 1.11008C40.515 1.17175 40.5458 1.23341 40.5767 1.32591C40.6383 1.94258 41.0083 2.40508 41.5017 2.55925L41.995 2.71341C42.5192 2.86758 42.9817 3.20675 43.29 3.63841C43.5983 4.10091 43.9683 4.56342 44.4 4.87175L44.7083 5.18008C45.0167 5.48841 45.4483 5.61175 45.88 5.58091H47.6992C48.4392 5.58091 49.1483 5.70425 49.8575 6.01258C50.5358 6.32092 51.245 6.38258 51.8925 6.13591C52.5708 5.92008 53.28 5.82758 53.9892 5.92008L55.315 6.13591C55.9317 6.19758 56.5483 6.50592 56.9183 6.96842L57.0725 7.12258C57.3808 7.43091 57.6892 7.83175 57.9975 8.26342C58.1825 8.66425 58.6142 8.88008 59.0458 8.88008H60.9575C61.42 8.88008 61.8825 8.97258 62.2525 9.18842C62.6533 9.49675 62.9925 9.80508 63.3008 10.1134L63.6092 10.5142C63.9792 10.9459 64.1642 11.5317 64.1333 12.1484C64.1333 12.6417 64.5033 13.0734 64.9967 13.0734L65.6133 13.1351C66.045 13.1351 66.415 13.4434 66.6308 13.8442L66.9392 14.4609L67.7408 16.2492C67.8642 16.5576 67.895 16.8659 67.8642 17.1126C67.8642 17.4209 67.9567 17.6676 68.1725 17.7909L68.4808 18.0068C68.8817 18.3151 69.0975 18.7776 69.0358 19.3018L68.82 20.7509L68.7583 21.3676C68.6967 21.6759 68.8508 22.0767 69.1283 22.2926C69.5908 22.6009 69.8067 23.0017 69.8375 23.4643V24.0809C69.8375 24.3892 69.7758 24.7592 69.5292 25.0059C69.3442 25.2526 69.2208 25.5609 69.2208 25.9309L69.3133 26.6401C69.3133 27.1334 69.6217 27.5651 69.93 27.8734C70.3617 28.1817 70.6083 28.6751 70.67 29.1684C70.7933 29.9392 70.8242 30.5559 70.8242 31.1726V31.8818C70.8242 32.1284 70.8242 32.3751 70.9167 32.6217C70.9783 32.8376 71.1325 33.0534 71.3175 33.1768L71.9342 33.6392C72.5508 34.0401 72.9825 34.5642 73.2292 35.2734C73.5375 35.9517 73.63 36.6609 73.63 37.3701V37.6167C73.63 38.1717 73.5683 38.7576 73.3833 39.2817C73.2292 39.8368 73.26 40.3609 73.4758 40.8234C73.7225 41.2551 73.8767 41.7484 73.9383 42.2726C74.0617 42.8893 74 43.5059 73.7842 43.9993L73.7225 44.2151C73.5683 44.5851 73.3217 44.9243 73.0133 45.2018C72.705 45.5101 72.3967 45.6951 72.2117 45.9109C72.0267 46.0959 71.9033 46.4043 71.9958 46.6818L72.0883 47.1134C72.2425 47.7301 72.2425 48.3467 72.0883 48.9017V49.1484C71.965 49.6109 71.78 50.0117 71.595 50.3818C71.3792 50.7826 71.0708 51.0909 70.67 51.3067L70.2075 51.6151C69.9917 51.7384 69.8375 52.0159 69.8375 52.2934C69.8375 52.6017 69.7142 52.9101 69.5292 53.0951L69.0667 53.7118C68.7583 54.1126 68.3575 54.4517 67.9258 54.6367C67.4942 54.9451 67.1242 55.2534 66.8467 55.5618C66.5383 55.9318 66.2917 56.3634 66.1683 56.7951C66.045 57.3501 65.6133 57.6584 65.1508 57.6584H63.4858C63.0542 57.6584 62.6533 57.9668 62.4683 58.3368C62.2525 58.8301 62.0367 59.1693 61.7592 59.4776C61.4508 59.7859 61.2658 60.1559 61.1425 60.5876C61.0808 60.9576 60.7725 61.2043 60.4642 61.0809C60.0633 60.8959 59.6625 61.0809 59.4775 61.3893C59.1075 62.0059 58.7375 62.4684 58.3367 62.8693L58.1208 63.0543C57.72 63.3626 57.1958 63.6092 56.7333 63.6092C56.1783 63.6092 55.9008 63.8559 55.8083 64.2259C55.7158 64.5342 55.6542 64.9351 55.6233 65.2743C55.5617 65.6442 55.4383 65.9834 55.315 66.2917L55.1608 66.4768C54.8525 66.9392 54.6058 67.4017 54.2975 67.8026L54.1742 67.9876C53.7733 68.5117 53.2492 68.9126 52.6325 69.0667C51.8925 69.3134 51.245 69.3751 50.5975 69.3751H50.1658C49.8575 69.3751 49.5492 69.5601 49.3333 69.8684L49.1483 70.1768L48.9633 70.5467L48.5625 71.2251C48.2542 71.7801 47.7917 72.1501 47.175 72.3351C46.5583 72.4893 45.8492 72.5509 45.2017 72.5201L44.7083 72.4584C44.2767 72.4584 43.8758 72.3351 43.475 72.1501C43.1667 72.0267 42.735 72.1501 42.55 72.4584C42.2417 72.8901 41.8717 73.1367 41.4708 73.2601L40.5458 73.5684C39.9292 73.7226 39.2508 73.7226 38.6033 73.5684L38.11 73.4143C37.8017 73.4143 37.4933 73.2601 37.2467 73.1059C36.9383 72.9518 36.63 72.8901 36.3217 72.9209L35.9208 72.9826C35.3042 73.0443 34.7492 72.9826 34.1942 72.8284L33.3617 72.6434C32.9917 72.5201 32.6525 72.2734 32.4367 71.9342C32.2825 71.6259 31.9433 71.3792 31.5117 71.3176H30.525C29.9083 71.2251 29.3533 71.0092 28.9833 70.5467L27.75 69.3751L27.3183 69.0051L26.64 68.5117L26.2392 68.2034C25.7767 67.8951 25.2217 67.6484 24.6358 67.5868L22.7858 67.2784C22.6008 67.2784 22.4775 67.2168 22.2925 67.1859L21.5833 67.0318C21.275 66.9701 20.9667 66.7234 20.7508 66.4151C20.5658 66.1068 20.2267 65.9834 19.9183 66.1068C19.3017 66.3534 18.8083 66.4151 18.315 66.5076H17.8833C17.0817 66.5693 16.3417 66.4459 15.6017 66.1068C14.8617 65.7984 14.3683 65.3359 13.9058 64.7501C13.5358 64.2259 12.9808 63.8251 12.3025 63.7018L11.4392 63.5168C10.8225 63.3934 10.2058 63.1468 9.65083 62.7768C9.03417 62.3451 8.72583 61.9443 8.47917 61.4509C8.2325 60.9884 8.07833 60.4643 8.0475 59.9093V59.6626C7.98583 59.0459 7.55416 58.4909 6.96833 58.3368C6.25916 58.1209 5.735 57.8126 5.2725 57.4118C4.84083 57.0109 4.59416 56.4251 4.59416 55.8084L4.65583 54.4518C4.65583 53.9276 4.50166 53.4651 4.13166 53.1259C3.76166 52.7559 3.515 52.2934 3.515 51.8001L3.4225 50.6901C3.36083 49.8884 3.20666 49.0868 3.02166 48.2851C2.83666 47.5759 3.11416 46.8668 3.7 46.5276L3.91583 46.3734C4.22416 46.1576 4.3475 45.7568 4.1625 45.3868L3.91583 45.0784C3.6075 44.7701 3.29916 44.5542 2.99083 44.4618C2.74416 44.4001 2.6825 44.1534 2.6825 43.9993L2.99083 43.6292C3.17583 43.4134 3.145 43.0742 2.99083 42.8892C2.74416 42.6426 2.62083 42.3343 2.59 42.0259L2.52833 39.8676C2.52833 39.4359 2.59 39.0042 2.71333 38.5726C2.83666 38.2026 2.71333 37.7709 2.34333 37.5859V37.6167ZM32.8683 33.5467C33.0842 33.3309 33.0533 32.9301 32.8683 32.7759C32.56 32.5293 32.3442 32.2517 32.1592 31.9434L31.8508 31.4501C31.635 31.0492 31.3575 30.7101 31.0492 30.4017L30.9875 30.3401C30.6792 30.0934 30.4633 29.7851 30.2783 29.4151C30.1242 29.1067 30.1242 28.7984 30.2783 28.4901L30.4633 28.1818C30.6483 27.8734 30.7717 27.4417 30.7717 27.0717V26.9484C30.7717 26.6401 30.6483 26.3317 30.4633 26.0234C30.34 25.7767 30.2167 25.4684 30.155 25.1601V24.9751C30.0625 24.6051 30.155 24.2042 30.4017 23.8959C30.6483 23.4951 30.8333 23.1251 30.9258 22.6626V22.6009C31.0492 22.2926 30.9875 21.8917 30.8025 21.5834C30.6175 21.2751 30.5558 20.9667 30.6792 20.5967L30.895 19.9801C31.08 19.4251 31.3575 18.9317 31.7275 18.5001L32.1592 18.0376L32.4675 17.6676L32.6525 17.4826C32.8375 17.2976 32.8683 16.9892 32.7142 16.7426C32.56 16.4342 32.4675 16.1259 32.5292 15.8176L32.5908 15.3859C32.6833 14.7692 32.8992 14.1526 33.3 13.6592L33.4233 13.5359C33.8858 12.9192 34.4717 12.5184 35.15 12.3026L35.9825 11.9942C36.3525 11.8709 36.5992 11.4701 36.5992 11.0692C36.5992 10.5759 36.7533 10.1442 37.0308 9.74342L37.185 9.58925C37.4933 9.06508 37.8633 8.54091 38.11 7.98591L38.3258 7.58508C38.3875 7.49258 38.4183 7.36925 38.4183 7.27675C38.4183 6.75258 38.11 6.29008 37.6167 6.25925L36.26 6.16675C35.4892 6.10508 34.7183 6.16675 33.9783 6.16675L31.3575 6.47508C30.9567 6.47508 30.6483 6.78341 30.6175 7.21508C30.6175 7.64675 30.3092 8.01675 29.9392 8.14008L28.8292 8.44841L28.5208 8.54092L27.5958 8.84925C26.9175 9.06508 26.3625 9.55842 26.0542 10.2367L25.8075 10.6376C25.4992 11.3159 24.975 11.8709 24.3275 12.2717C23.7108 12.6726 23.4025 13.3201 23.3408 14.0601V14.3684C23.2792 14.9851 23.0942 15.6017 22.7242 16.0334L22.57 16.2801C22.3233 16.5884 22.2617 16.9892 22.4158 17.3284C22.57 17.6984 22.6625 18.0992 22.6317 18.5001V20.1343C22.6317 20.5659 22.3233 20.9359 22.015 21.0592C21.5833 21.2134 21.3058 21.5526 21.1825 21.9842L21.0283 22.6009C20.905 23.2176 21.1208 23.8342 21.645 24.2042C22.1383 24.5742 22.4467 25.1292 22.57 25.8076V26.3626C22.6625 26.9792 23.0017 27.5959 23.5567 27.9042C24.1117 28.2743 24.5433 28.8293 24.79 29.4459L24.9442 29.9392C25.1908 30.6176 25.7458 31.0184 26.3625 31.0801H26.5475C27.1025 31.0801 27.5958 31.3884 27.9042 31.8818C28.2125 32.3751 28.7058 32.7143 29.2608 32.8068L30.1242 33.0534C30.6483 33.2076 31.1417 33.4851 31.5425 33.8859L31.6042 33.9476C31.9125 34.1943 32.4058 34.1634 32.6833 33.8242L32.8992 33.5776L32.8683 33.5467ZM36.3833 30.7101C36.6917 30.8951 37 30.8026 37.1233 30.5251L37.2158 30.3709C37.4317 29.9393 37.7092 29.5076 38.0175 29.1376L38.6342 28.2126C38.7267 28.2126 38.7575 28.1509 38.7883 28.0892L39.5283 27.1026C39.8367 26.7942 40.2067 26.5784 40.6383 26.5784C41.0392 26.5784 41.3783 26.3626 41.5633 25.9618C41.6867 25.5301 41.8717 25.1292 42.2417 24.7901L42.3958 24.6051C42.7042 24.2967 43.0125 24.1426 43.3208 23.9884C43.7217 23.9268 44.0917 23.8651 44.4617 23.8651H45.3867C45.7567 23.8651 46.065 23.7109 46.25 23.4026C46.435 23.0942 46.7125 22.8784 47.0208 22.7242L47.3292 22.6009C47.8225 22.3851 48.3775 22.2309 48.9325 22.1692L49.5492 22.1076C49.9192 22.1076 50.32 22.1076 50.69 22.3234C50.9983 22.5392 51.3992 22.5084 51.7075 22.2617L51.9233 22.1384C52.3858 21.8301 52.91 21.5834 53.465 21.5217H53.5267C54.1433 21.3984 54.6983 21.3984 55.315 21.4292H55.6233C56.24 21.5217 56.7642 21.7376 57.165 22.2001L57.2575 22.3234C57.5658 22.6317 58.0592 22.8784 58.4908 22.8784H59.015C59.1692 22.8784 59.3233 22.8167 59.4158 22.6626C59.5083 22.5701 59.6625 22.4776 59.8167 22.4776H60.125C60.5567 22.4776 60.9575 22.6009 61.3583 22.7242L61.8825 22.9401C62.3758 23.0942 62.9 23.2484 63.4242 23.3101H63.7942C64.0408 23.3101 64.195 23.1559 64.195 22.9401C64.195 22.6318 64.1333 22.3234 63.9792 22.0767L63.7633 21.5834C63.5167 21.1826 63.3317 20.7509 63.1467 20.3501L63.085 20.1959C62.9308 19.8876 62.9308 19.5792 63.085 19.2709V19.1167C63.1467 18.8701 63.0233 18.5926 62.7767 18.5001H62.53C62.0367 18.3459 61.605 18.0684 61.2967 17.6676L60.9883 17.3592C60.68 17.0509 60.495 16.5884 60.3717 16.1259C60.2175 15.7251 59.8783 15.4167 59.4467 15.4167H58.1517C57.6892 15.3551 57.2883 15.1084 57.0108 14.7384L56.8875 14.5842C56.6717 14.2759 56.4867 13.9059 56.3633 13.5359C56.2092 13.2276 55.87 13.0426 55.5617 13.1351L55.1917 13.2584C54.575 13.4742 53.9583 13.5667 53.3417 13.5051L52.8483 13.4434C52.3242 13.4434 51.8308 13.2276 51.43 12.9192L51.1217 12.7034C50.875 12.5184 50.6283 12.3951 50.3508 12.2717C50.0425 12.1484 49.7958 12.2101 49.6108 12.4259L49.4567 12.6109C49.1483 12.9192 48.7167 13.1659 48.285 13.2276L46.62 13.3201C46.3117 13.3201 46.0033 13.4742 45.7875 13.6901C45.5408 13.9059 45.2633 14.0601 44.955 14.1217H44.8933C44.585 14.1217 44.2767 14.3376 43.9683 14.5534V14.6151C43.66 14.9234 43.2592 15.0776 42.8583 15.0776L42.735 15.1392C42.365 15.1392 41.995 15.1392 41.625 15.2317H41.255C40.7308 15.3242 40.33 15.7559 40.2067 16.3109L40.0833 17.0201C39.9908 17.5134 39.775 17.9451 39.4667 18.3459C39.1583 18.7159 38.7883 18.9626 38.3258 18.9626H37.8633H37.8017C37.4933 19.0243 37.185 19.3634 37.2467 19.7334C37.3083 20.2576 37.2467 20.7201 37.1542 21.1826L37.0308 21.7067C36.9075 22.1692 36.5992 22.5392 36.1983 22.6934L36.0133 22.7859H35.9517C35.7667 22.9092 35.6433 23.1868 35.7975 23.4026C35.9825 23.7109 36.0442 24.0192 36.0133 24.3276L35.9208 25.3142C35.9208 25.6842 35.7667 26.0234 35.6125 26.3317C35.4275 26.6401 35.4275 26.9484 35.5508 27.2568L35.8592 27.9351C36.0133 28.2434 36.0442 28.5518 35.9517 28.9217C35.8592 29.2301 35.7975 29.5384 35.8283 29.8468C35.8283 30.1551 36.0133 30.4634 36.26 30.5868L36.3217 30.6484L36.3833 30.7101ZM60.7417 53.0026C61.05 53.3109 61.5125 53.4342 61.8825 53.1876L62.4992 52.7868C62.8075 52.5709 63.0542 52.2626 63.1775 51.8618V51.8001L63.4858 50.8751L63.6708 50.5667L63.7942 50.2584L63.9175 50.0426C64.0408 49.7959 64.2258 49.6109 64.5342 49.5184L64.6575 49.4568C64.9042 49.3951 65.0583 49.1484 65.0583 48.9017C65.0583 48.5934 65.2125 48.3467 65.3667 48.1309L65.6133 47.9151L66.23 47.1134V47.0518C66.415 46.8051 66.5383 46.5276 66.6 46.2192C66.6617 45.9109 66.6 45.6026 66.4767 45.2943L66.415 45.1709C66.2917 44.8626 66.23 44.6468 66.1992 44.3693L66.1067 43.5059L66.0142 42.5809C66.0142 42.2726 66.1375 41.9643 66.3225 41.6559C66.5383 41.4093 66.6925 41.1009 66.8158 40.7926V40.6693L66.8775 40.6076C66.9392 40.2993 66.785 39.9909 66.5075 39.9909C66.1992 39.8368 65.8908 39.5901 65.7983 39.2201L65.7058 39.0351C65.5517 38.4801 65.4592 37.9251 65.4592 37.3701L65.5208 35.8284V35.7359C65.5208 35.2118 65.0892 34.8109 64.5958 34.8109H64.5342C63.9175 34.8109 63.4242 34.6259 62.9925 34.1943L62.7458 33.8859L62.1292 33.1768L61.3275 32.2517C61.0192 31.8201 60.7108 31.4501 60.31 31.0801C60.0017 30.7717 59.5392 30.4634 59.0767 30.4017L58.46 30.3092C58.1517 30.2476 57.7508 30.0934 57.4117 29.8776C57.165 29.6926 56.795 29.7542 56.5483 30.0009L56.1475 30.4326L55.9625 30.5559C55.7467 30.6176 55.5308 30.4943 55.4383 30.2476C55.315 29.8776 55.315 29.4459 55.5 29.0759V28.8909C55.5 28.6751 55.315 28.5209 55.13 28.5826H54.6367C54.0817 28.5826 53.5267 28.5209 53.0025 28.2743L52.6942 28.1509C52.3858 27.9967 52.0158 27.9042 51.6767 27.9042C51.3683 27.9042 51.06 27.9659 50.7517 28.1509L50.6283 28.2434C50.2583 28.4901 49.8267 28.6134 49.395 28.6442H48.3775C47.915 28.6442 47.4525 28.7984 47.1442 29.0451C46.7433 29.2917 46.3117 29.4459 45.8492 29.5384L45.0167 29.6617C44.6467 29.7542 44.2458 29.9084 43.9067 30.1859C43.5983 30.4942 43.1667 30.6792 42.7658 30.8026L42.6117 30.8643C42.1183 31.0184 41.6867 31.3268 41.3783 31.7893L41.0083 32.1593C40.7925 32.4676 40.7925 32.8376 41.0083 33.1459C41.1933 33.4543 41.5633 33.5467 41.9333 33.4543L42.3958 33.2692C42.6425 33.1768 42.92 33.2692 43.1358 33.3926C43.3208 33.5467 43.5983 33.6392 43.8758 33.6084L44.6467 33.5159C45.0783 33.5159 45.51 33.5159 45.9417 33.6392C46.4042 33.7934 46.805 33.9476 47.175 34.2559C47.545 34.5642 47.9458 34.6876 48.4083 34.7493C48.8708 34.8109 49.3333 34.9034 49.765 35.0576L50.0733 35.1193C50.3817 35.2118 50.6283 35.4276 50.8133 35.7359C50.9675 35.9826 51.1217 36.3526 51.1217 36.6609V36.7534C51.1217 37.1234 51.43 37.3701 51.7383 37.3701H51.9233C52.4167 37.3701 52.9408 37.4317 53.465 37.5859L53.6808 37.6784C53.9892 37.8018 54.2975 37.9868 54.5133 38.2951C54.76 38.6034 54.9142 38.9118 55.0067 39.2201L55.0992 39.6517C55.1917 40.1143 55.2225 40.5767 55.2225 41.0701V41.2243C55.2225 41.5326 55.4383 41.8409 55.7775 41.9642C56.0858 42.0259 56.4558 42.1493 56.795 42.3342L56.9492 42.3959C57.35 42.6426 57.7508 42.9509 58.0592 43.3209L58.2133 43.5368C58.6142 43.9992 58.83 44.5851 58.83 45.1709V45.3868C58.83 45.8493 58.7375 46.3117 58.5833 46.7434C58.46 47.1134 58.5833 47.5451 58.9842 47.6684L59.2 47.8226C59.6625 48.0076 60.0633 48.3468 60.3717 48.7476C60.68 49.2101 60.8033 49.7342 60.8033 50.2892V51.2143C60.7417 51.5226 60.6492 51.7693 60.495 51.9851C60.3408 52.2009 60.3408 52.5093 60.495 52.7251L60.68 53.0334L60.7417 53.0026ZM41.0083 37.2159H40.9467C40.8233 37.2159 40.7617 37.3701 40.7925 37.5243L40.9158 38.1409C41.0392 38.6343 41.1008 39.1276 41.1625 39.6209C41.2242 40.1143 41.4708 40.5459 41.8408 40.8543H41.9642C42.4267 41.2243 42.7042 41.7792 42.735 42.3342V43.8759C42.6733 44.1842 42.735 44.4926 42.92 44.7393L43.0742 44.8934C43.3825 45.2634 43.5058 45.6951 43.5367 46.1268L43.6292 47.8226C43.6292 48.2234 43.3825 48.5626 43.0125 48.6243L42.7042 48.6859C42.4883 48.6859 42.3958 48.9326 42.3958 49.1484C42.3958 49.3951 42.4883 49.6726 42.5808 49.9193V49.9809C42.6733 50.2892 42.7042 50.5976 42.6733 50.9059L42.55 51.7384C42.4267 52.3551 42.2417 52.9101 41.9333 53.4651L41.7175 53.8351C41.5633 54.1434 41.3475 54.3284 41.1008 54.4518C40.7925 54.5751 40.5767 54.8217 40.4842 55.1301L40.2375 56.2401C40.0833 56.8568 39.8058 57.4734 39.4358 58.0901H39.3742C39.0042 58.5834 38.5417 59.0151 37.9867 59.3234L37.6167 59.5701L36.6917 60.0326C36.3833 60.1559 36.1983 60.4334 36.1367 60.7726L35.9825 61.7901C35.89 62.4068 35.6742 62.9309 35.2425 63.3318L34.8417 63.7943L34.3792 64.2568L33.9167 64.7501C33.5467 65.1818 32.9917 65.3668 32.375 65.2743L31.265 65.0584L30.2475 64.9351H29.97C29.8467 65.0584 29.8158 65.2434 29.9083 65.4284C30.1242 65.7984 30.4633 66.0451 30.8333 66.0451L31.5117 66.1684C31.82 66.1684 32.19 66.3226 32.4983 66.4768C32.8067 66.6926 33.115 66.8467 33.485 66.9392H33.5467C33.9475 67.0934 34.3792 67.1243 34.78 67.0934L35.2425 67.0318C35.7667 66.9701 36.26 67.0317 36.6917 67.2168L37.0617 67.3401C37.2158 67.4017 37.4625 67.3401 37.6167 67.1859C37.8017 67.0009 37.9867 66.8776 38.2333 66.7851L38.48 66.7234C38.8808 66.6001 39.2817 66.5384 39.7133 66.5384H39.96C40.33 66.5384 40.6692 66.6001 40.9775 66.7851L41.1008 66.8468C41.3167 66.9393 41.5633 66.8468 41.7175 66.6618C41.81 66.4459 42.0258 66.2301 42.2417 66.0451L43.0125 65.5209L43.5058 65.2126L43.7525 65.0584C44.0608 64.8426 44.4925 64.7501 44.8625 64.7501L45.9725 64.6576C46.4042 64.5959 46.7742 64.2876 46.8975 63.8559C47.0208 63.3934 47.2058 62.9309 47.5142 62.5301C47.8225 62.1293 48.1308 61.7901 48.4392 61.4818C48.84 61.1734 49.2408 61.0193 49.6725 60.9884H49.9192C50.4125 60.8959 50.7825 60.4334 50.7517 59.9401V59.8784V57.8743C50.8133 57.5659 50.9367 57.1651 51.1217 56.8568L51.7383 55.9317L51.985 55.6234C52.17 55.4693 52.2933 55.2534 52.5092 55.0068L52.8175 54.6059C53.0025 54.2976 53.0025 53.8967 52.7558 53.6192C52.4475 53.3109 52.2933 52.8792 52.2317 52.4476V52.3242C52.17 51.8309 52.17 51.3067 52.3242 50.7826V50.6284C52.4783 50.2276 52.6942 49.8268 52.9408 49.4568C53.1875 49.1484 53.1567 48.7168 52.8483 48.4701L52.3242 48.0076C51.8925 47.6376 51.6458 47.0826 51.5842 46.5276L51.5225 45.9109C51.5225 45.7259 51.5225 45.5101 51.4608 45.2943L51.3992 44.8317C51.3375 44.3076 51.0292 43.9067 50.5975 43.5984L50.3817 43.5368C50.0733 43.3517 49.765 43.0743 49.5183 42.7043C49.2717 42.3959 49.1483 41.9643 49.0558 41.5326L48.9633 41.0084C48.9633 40.8234 48.84 40.7001 48.655 40.6076L48.1617 40.4534L47.175 40.1451C46.8667 40.0834 46.5583 39.8368 46.3425 39.6209H46.2808C46.0958 39.3743 45.7875 39.3742 45.6025 39.5592L45.2942 39.8676C45.2325 39.9601 45.1708 39.9909 45.0783 39.9601C44.8933 39.9601 44.77 39.8059 44.8317 39.6517C44.8933 39.1584 44.7083 38.6651 44.3075 38.3568L43.9067 38.0484L42.9817 37.4318C42.735 37.3393 42.365 37.4317 42.2417 37.7401L42.1183 37.9251C42.1183 37.9868 42.0258 38.0176 41.995 38.0484C41.8717 38.0484 41.6867 38.0484 41.6867 37.8942L41.5942 37.7401C41.5017 37.5551 41.2858 37.4318 41.1008 37.3701L41.0083 37.2159ZM37.3083 40.2992L37.1542 40.1451C37 40.0218 36.8458 40.0526 36.6917 40.2067C36.4758 40.5768 36.2908 40.9776 36.1983 41.3784V41.4401C36.1058 41.8409 35.7358 42.1184 35.3658 42.0568H35.0575H34.9958C34.5642 42.0568 34.225 42.4268 34.225 42.8584C34.225 43.4134 34.04 43.9684 33.7008 44.4001L33.5158 44.5851C33.2075 44.9859 32.745 45.2634 32.2825 45.4176L32.0358 45.4793C31.7275 45.5718 31.4808 45.7876 31.4192 46.1576C31.4192 46.4659 31.2342 46.7743 30.9875 47.0209L30.6792 47.2676C30.3092 47.6684 29.7542 47.8843 29.1992 47.9459L27.6575 48.1001C27.1642 48.1001 26.7325 48.4084 26.4242 48.8709C26.1158 49.3334 25.6533 49.6418 25.1908 49.7034L24.5125 49.7651C24.0192 49.8267 23.495 49.8268 22.9708 49.7034L22.6625 49.6418L21.83 49.4259C21.5217 49.3334 21.275 49.4259 21.09 49.6418L20.7817 50.0426C20.3808 50.5051 19.795 50.7209 19.24 50.6593L17.2358 50.4126C16.9275 50.4126 16.6808 50.2584 16.4033 50.1043C16.095 49.9193 15.8792 49.7034 15.6633 49.4876L14.8925 48.5626C14.8 48.5009 14.6458 48.4701 14.4917 48.5009L14.06 48.6859L12.3333 49.1176C12.025 49.2101 11.6242 49.1176 11.3158 48.9326C11.0075 48.6859 10.6375 48.6243 10.2675 48.6243H9.86666C9.49667 48.7168 9.25 49.1176 9.37333 49.4876L9.49667 50.1043C9.58916 50.4126 9.55833 50.7826 9.40416 51.0909C9.25 51.3993 9.28083 51.7076 9.49667 52.0159L9.68167 52.2626C9.92833 52.6326 10.2983 52.9409 10.6067 53.2493C10.915 53.5576 11.2233 53.8659 11.47 54.2668L11.9325 55.0993C12.1792 55.5309 12.5492 55.7776 13.0425 55.7776C13.505 55.7776 13.9675 55.9318 14.3375 56.2401L15.2625 57.1034C15.5092 57.3193 15.8792 57.3501 16.1258 57.1651L16.28 57.1034C16.465 57.1034 16.5883 57.2268 16.5883 57.4118V57.5659C16.5883 57.9668 16.8967 58.3368 17.2975 58.4909L18.685 58.7993C19.1783 58.9534 19.6717 59.1076 20.1342 59.4159H20.3808C20.6275 59.4159 20.8433 59.2001 20.8125 58.9226V57.8434C20.8125 57.5351 20.9358 57.2268 21.1825 57.1034L21.3367 57.0418C21.4908 57.1034 21.645 57.2268 21.5833 57.3501V57.8743C21.5833 58.2751 21.7067 58.6451 21.9842 58.9226C22.2925 59.2309 22.6933 59.2926 23.0325 59.1693C23.4025 59.0151 23.7725 58.9842 24.1733 59.0151L25.3142 59.0768C25.8692 59.1384 26.3933 59.0768 26.8558 58.8609C27.4108 58.6759 27.8733 58.4293 28.305 58.0901L28.49 57.9667L29.415 57.1343C29.7233 56.8259 30.1242 56.6717 30.4942 56.6717H31.7275C32.3442 56.6101 32.8992 56.0551 32.9608 55.4384L33.0842 54.8218C33.0842 54.4209 33.2692 54.0509 33.5467 53.7426C33.855 53.4342 34.1633 53.2492 34.4717 53.1259L34.8417 52.9718C35.3658 52.7559 35.7667 52.2934 35.9517 51.7384L36.1367 50.9984C36.2908 50.3818 36.5992 49.7651 37.0617 49.3643L37.1233 49.3026C37.4933 48.9943 37.555 48.3776 37.3083 47.9459L37.2158 47.7301C37 47.4217 36.9692 46.9593 37.1233 46.5584C37.2775 46.1268 37.4317 45.7568 37.6783 45.3868L37.9867 44.9551C38.11 44.7084 38.11 44.3384 37.925 44.1226C37.74 43.8759 37.6167 43.5676 37.6167 43.2593L37.555 42.8276V41.7793C37.6167 41.4709 37.555 41.0701 37.4625 40.7617L37.3392 40.3918L37.3083 40.2992ZM32.8992 37.9559V37.8634C32.8992 37.5551 32.7142 37.3701 32.4675 37.3701H31.6658C31.3575 37.4318 31.0492 37.4318 30.8025 37.3701H29.415C28.7058 37.3701 28.0275 37.2467 27.3492 37.0618L26.6092 36.8768L25.9925 36.6917L24.605 36.2292C23.865 36.0134 23.31 35.5201 22.9708 34.8418L22.8167 34.5334C22.6008 34.0709 22.1383 33.8242 21.6758 33.9167C21.1517 33.9167 20.6275 33.9168 20.1342 33.6701L19.7642 33.5159C19.055 33.2076 18.5308 32.5909 18.5308 31.7584L18.4075 30.9259C18.315 30.4942 18.0375 30.0934 17.6675 29.9392C17.2358 29.7542 16.835 29.5076 16.4342 29.2301L16.28 29.1376C15.8175 28.7676 15.4167 28.2742 15.2008 27.6884L15.1392 27.5034C14.985 27.0101 14.9542 26.4859 15.0775 25.9618L15.1392 25.7767C15.2625 25.3759 15.2933 24.9751 15.2933 24.5434C15.2933 24.1734 15.1392 23.8034 14.8617 23.5259L14.43 23.1251C13.9367 22.7242 13.6283 22.1384 13.5975 21.4909C13.5358 20.8126 13.5358 20.1651 13.6592 19.5176V19.4251V19.3326C13.6592 18.9626 13.3508 18.7159 13.0425 18.7159H12.95C12.5492 18.7159 12.21 18.9626 12.025 19.3326C11.8708 19.7642 11.6242 20.1034 11.3467 20.4426L11.2233 20.5967L10.6067 21.2134L10.2983 21.5217C9.99 21.8301 9.805 22.2926 9.74333 22.7551C9.68167 23.2176 9.55833 23.6801 9.37333 24.1117L9.31166 24.2659C9.1575 24.6359 8.91083 24.9751 8.6025 25.1909C8.29416 25.4376 8.07833 25.8076 8.07833 26.1776L8.01666 27.5959C8.01666 28.2126 7.92416 28.8293 7.70833 29.4459L7.64666 29.6926C7.4925 30.0934 7.64666 30.5251 8.01666 30.7101L9.31166 31.2651L9.435 31.3267C9.5275 31.3267 9.55833 31.3884 9.58916 31.4809C9.68166 31.6042 9.58916 31.7893 9.49667 31.7893L9.18833 31.9434C9.00333 32.0051 8.88 32.1901 8.81833 32.4059L8.75666 32.7142V32.7759L8.44833 34.5026C8.38666 34.7492 8.38667 35.0267 8.38667 35.3042C8.38667 35.5509 8.54083 35.7668 8.75666 35.8592L9.435 36.1676C9.74333 36.3526 10.1133 36.5684 10.36 36.7843L10.6683 37.0309C10.7608 37.1543 10.915 37.2776 11.0383 37.3392L11.1617 37.4626C11.3775 37.6476 11.5317 37.8942 11.5933 38.1717L11.9017 39.5592C11.9017 39.9292 12.21 40.2376 12.5183 40.3301L13.0117 40.4842C13.0117 40.4842 13.1042 40.4842 13.1658 40.5459L13.7825 40.7309C14.2758 40.8851 14.7075 41.1626 15.0775 41.5326C15.4475 41.8409 15.8175 42.2417 16.1258 42.6734L16.2492 42.7967C16.4958 43.1051 16.8658 43.2593 17.2358 43.1668C17.6058 43.0742 18.0067 43.0434 18.4075 43.0434H18.87C19.1783 43.0434 19.5792 43.1359 19.9183 43.3518C20.2267 43.5368 20.6275 43.6601 20.9975 43.8143H21.09C21.46 43.9684 21.8608 43.9067 22.1692 43.6909C22.4775 43.4443 22.8783 43.3209 23.2792 43.3209L24.7283 43.4134C25.0367 43.4134 25.345 43.3517 25.4992 43.1051H25.5608L26.085 42.6117L26.2392 42.4576C26.4858 42.1493 26.8558 42.0259 27.2258 41.9951H28.6133C28.9833 41.9951 29.3225 41.6868 29.4767 41.3784C29.6308 41.0701 29.9392 40.8234 30.3092 40.7617L30.9258 40.6384C31.1725 40.6384 31.3883 40.4226 31.4808 40.1451C31.5733 39.8368 31.7275 39.5901 31.9433 39.4051L32.4367 38.9118C32.745 38.6034 32.8992 38.2951 32.9608 37.9251L32.8992 37.9559Z" fill="white"/>
</svg>
