<svg width="67" height="67" viewBox="0 0 60 67" fill="none" xmlns="http://www.w3.org/2000/svg">
<path fill-rule="evenodd" clip-rule="evenodd" d="M8.62726 0V19.69C11.4044 16.1158 14.7324 14.315 18.5941 14.315C20.5823 14.315 22.3653 14.723 23.9594 15.5385C25.5619 16.3457 26.7607 17.3837 27.5664 18.6431C28.3799 19.9117 28.9306 21.3038 29.2256 22.8382C29.5224 24.3643 29.6702 26.7409 29.6702 29.9603V51.016H21.0426V32.0535C21.0426 28.2932 20.8861 25.9069 20.5577 24.8956C20.2291 23.8762 19.6536 23.0775 18.824 22.4834C17.9939 21.8805 16.9589 21.5785 15.7101 21.5785C14.2805 21.5785 12.9984 21.9688 11.8814 22.7319C10.748 23.5035 9.92599 24.6566 9.40837 26.1998C8.88198 27.7433 8.61879 30.0225 8.62755 33.0382L8.61879 51.0163H0V0H8.62726ZM42.6029 0V19.69C45.3791 16.1158 48.7075 14.315 52.5686 14.315C54.5491 14.315 56.3398 14.723 57.9429 15.5385C59.5364 16.3457 60.7361 17.3837 61.5409 18.6431C62.3544 19.9117 62.905 21.3038 63.2009 22.8382C63.4969 24.3643 63.645 26.7409 63.645 29.9603V51.016H55.0253V32.0535C55.0253 28.2932 54.8617 25.9069 54.5325 24.8956C54.2036 23.8762 53.629 23.0775 52.7985 22.4834C51.9768 21.8805 50.9331 21.5785 49.6846 21.5785C48.2547 21.5785 46.9732 21.9688 45.8556 22.7319C44.7304 23.5035 43.9086 24.6566 43.3823 26.1998C42.8646 27.7433 42.6023 30.0225 42.6023 33.0382V51.0163H33.9829V0H42.6029ZM0.0245375 " fill="white"/>
</svg>
