<svg width="63" height="74" viewBox="0 0 63 74" fill="none" xmlns="http://www.w3.org/2000/svg">
<path d="M43.7247 55.28L35.409 63.3182C33.9722 64.7582 31.9834 65.3594 29.7881 65.3594C27.5927 65.3594 25.604 64.7582 24.1641 63.3182L10.8071 49.8657C9.36717 48.4257 8.64258 46.3198 8.64258 44.1214C8.64258 41.923 9.36717 39.9373 10.8071 38.4974L24.124 24.9924C25.5639 23.5525 27.5927 23.0037 29.7881 23.0037C31.9834 23.0037 33.9722 23.6049 35.409 25.0448L43.7247 33.08C45.3096 34.6679 47.9335 34.6124 49.5831 32.9628C51.2327 31.3102 51.2882 28.6862 49.7033 27.1014L41.6589 18.9737C39.5819 16.9204 36.9697 15.492 34.1202 14.8513L41.7268 7.13374C43.3178 5.54891 43.2622 2.92191 41.6127 1.27232C39.9631 -0.37726 37.3361 -0.429677 35.7482 1.15516L4.6065 32.2999C1.58175 35.3277 0 39.5057 0 44.1245C0 48.7433 1.58175 53.0507 4.6065 56.0724L18.0098 69.5188C21.0345 72.5374 25.2155 73.9958 29.8312 73.9958C34.447 73.9958 38.628 72.4172 41.6558 69.3893L49.7003 61.2586C51.2851 59.6737 51.2296 57.0498 49.58 55.4002C47.9304 53.7507 45.3065 53.6952 43.7247 55.28ZM58.2442 40.11H26.9638C24.7993 40.11 23.0479 41.9723 23.0479 44.2602C23.0479 46.548 24.7993 48.4103 26.9638 48.4103H58.2442C60.4056 48.4103 62.16 46.548 62.16 44.2602C62.16 41.9723 60.4056 40.11 58.2442 40.11Z" fill="white"/>
</svg>
