<svg width="74" height="74" viewBox="0 0 74 74" fill="none" xmlns="http://www.w3.org/2000/svg">
<path d="M58.5833 0H15.4167C6.90358 0 0 6.90358 0 15.4167V58.5833C0 67.0964 6.90358 74 15.4167 74H58.5833C67.0995 74 74 67.0964 74 58.5833V15.4167C74 6.90358 67.0995 0 58.5833 0ZM24.6667 58.5833H15.4167V24.6667H24.6667V58.5833ZM20.0417 20.757C17.0632 20.757 14.6458 18.3212 14.6458 15.318C14.6458 12.3148 17.0632 9.879 20.0417 9.879C23.0202 9.879 25.4375 12.3148 25.4375 15.318C25.4375 18.3212 23.0233 20.757 20.0417 20.757ZM61.6667 58.5833H52.4167V41.3043C52.4167 30.9197 40.0833 31.7059 40.0833 41.3043V58.5833H30.8333V24.6667H40.0833V30.1088C44.3877 22.1353 61.6667 21.5463 61.6667 37.7431V58.5833Z" fill="white"/>
</svg>
