<svg width="68" height="68" viewBox="0 0 68 68" fill="none" xmlns="http://www.w3.org/2000/svg">
<path d="M63.6729 9.80963C59.0375 21.368 47.4189 37.0801 37.6966 44.876L31.7669 49.6318C31.0144 50.1736 30.2619 50.6552 29.4191 50.9863C29.4191 50.4445 29.389 49.8425 29.2987 49.2706C28.9676 46.7422 27.8238 44.3944 25.8071 42.3777C23.7603 40.3309 21.262 39.1269 18.7035 38.7958C18.1015 38.7657 17.4996 38.7055 16.8976 38.7657C17.2287 37.8326 17.7404 36.9597 18.3725 36.2373L23.068 30.3076C30.8338 20.5854 46.6062 8.90663 58.1345 4.30134C59.9104 3.63914 61.6261 4.12074 62.7097 5.23443C63.8535 6.34813 64.3953 8.06383 63.6729 9.80963Z" stroke="white" stroke-width="7.53849" stroke-linecap="round" stroke-linejoin="round"/>
<path d="M29.4192 50.9865C29.4192 54.2975 28.155 57.4577 25.7771 59.8657C23.941 61.7018 21.4427 62.9663 18.4628 63.3576L11.0582 64.1703C7.02481 64.6218 3.56332 61.1901 4.04492 57.0965L4.85761 49.6922C5.58001 43.1003 11.0883 38.8863 16.9277 38.7659C17.5297 38.7358 18.1618 38.7656 18.7337 38.7957C21.2922 39.1268 23.7905 40.301 25.8373 42.3779C27.854 44.3946 28.9978 46.7421 29.3289 49.2705C29.359 49.8424 29.4192 50.4146 29.4192 50.9865Z" stroke="white" stroke-width="7.53849" stroke-linecap="round" stroke-linejoin="round"/>
<path d="M40.8872 41.5044C40.8872 33.6483 34.506 27.2671 26.6499 27.2671" stroke="white" stroke-width="7.53849" stroke-linecap="round" stroke-linejoin="round"/>
</svg>
