<svg width="33" height="38" viewBox="0 0 33 38" fill="none" xmlns="http://www.w3.org/2000/svg">
<path d="M22.6559 24.6736C22.3238 24.5714 22.2983 24.1116 22.6814 23.9584C29.2712 20.8423 28.837 13.7672 28.837 13.7672C28.8114 6.59006 23.5498 -0.0507912 15.07 0.000292812C5.61952 0.0513758 -0.0507412 7.48402 0.00034225 16.2703C0.0769674 31.6464 11.8262 37.521 15.4786 37.4955L15.4531 31.391C15.4531 30.4204 15.4531 29.6542 16.0405 29.6542C16.0405 29.6542 19.8207 33.4344 24.0096 33.4344C30.5483 33.4088 32.7704 27.9174 32.7704 27.9174L22.6559 24.6736ZM15.0955 19.9739C11.7495 19.9994 9.04212 17.292 9.01657 13.946C8.99103 10.6001 11.6985 7.89269 15.0444 7.86715C18.3904 7.84161 21.0978 10.549 21.1234 13.8949C21.1234 17.2409 18.4159 19.9483 15.0955 19.9739Z" fill="#0055DA"/>
</svg>
