<svg width="36" height="36" viewBox="0 0 36 36" fill="none" xmlns="http://www.w3.org/2000/svg">
<path d="M24.9442 24.7125C26.2727 24.5749 27.2805 23.4297 27.2347 22.0552C27.189 20.6809 26.0436 19.5813 24.6693 19.5813H24.5777C23.1574 19.6272 22.058 20.8183 22.1039 22.2384C22.1497 22.9257 22.4245 23.5212 22.8368 23.9335C21.2792 27.0031 18.897 29.2479 15.3238 31.1262C12.8957 32.409 10.3762 32.8672 7.85658 32.5465C5.79501 32.2716 4.19161 31.3554 3.18361 29.8434C1.71773 27.5986 1.58034 25.1705 2.81728 22.7424C3.68775 21.0015 5.06194 19.7187 5.93241 19.0773C5.74917 18.4818 5.47425 17.4739 5.33686 16.741C-1.30585 21.5513 -0.618611 28.0568 1.39711 31.1262C2.90883 33.417 5.97825 34.8372 9.3683 34.8372C10.2845 34.8372 11.2006 34.7455 12.117 34.5165C17.9809 33.3712 22.4246 29.8893 24.9442 24.7125ZM33.0071 19.0316C29.5253 14.9542 24.3945 12.7094 18.5306 12.7094H17.7976C17.3853 11.8848 16.5149 11.3349 15.5528 11.3349H15.4612C14.0411 11.3808 12.9417 12.5719 12.9874 13.9922C13.0333 15.3665 14.1785 16.4661 15.5528 16.4661H15.6444C16.6523 16.4202 17.5227 15.7788 17.8892 14.9084H18.7138C22.1955 14.9084 25.4939 15.9162 28.4718 17.8862C30.7623 19.3981 32.4115 21.3681 33.3277 23.7503C34.1065 25.6745 34.0606 27.5528 33.236 29.1563C31.9534 31.5844 29.8003 32.913 26.9599 32.913C25.1274 32.913 23.3866 32.3632 22.4703 31.9508C21.9665 32.409 21.0502 33.1419 20.4088 33.6002C22.3788 34.5164 24.3945 35.0204 26.3185 35.0204C30.7164 35.0204 33.9691 32.5922 35.206 30.1642C36.5345 27.507 36.4428 22.9257 33.0071 19.0316ZM9.73476 25.4911C9.78061 26.8656 10.9259 27.965 12.3002 27.965H12.3919C13.812 27.9193 14.9115 26.728 14.8656 25.3079C14.8199 23.9334 13.6745 22.834 12.3002 22.834H12.2086C12.117 22.834 11.9794 22.834 11.888 22.8797C10.0097 19.7644 9.23091 16.3744 9.50583 12.7093C9.68892 9.96047 10.6052 7.57814 12.2086 5.60813C13.5371 3.91303 16.1025 3.08841 17.8435 3.0427C22.6994 2.95102 24.7608 8.99831 24.8984 11.4265C25.4939 11.5639 26.5018 11.8846 27.189 12.1137C26.6392 4.69209 22.058 0.84375 17.6602 0.84375C13.5371 0.84375 9.73477 3.82162 8.22291 8.21967C6.11564 14.0837 7.48997 19.7187 10.0554 24.1626C9.82645 24.4832 9.68892 24.9871 9.73476 25.4911Z" fill="#764ABC"/>
</svg>
