<svg width="37" height="35" viewBox="0 0 37 35" fill="none" xmlns="http://www.w3.org/2000/svg">
<path d="M33.5258 0H3.47418C1.55544 0 0 1.47136 0 3.28639V31.7136C0 33.5286 1.55544 35 3.47418 35H33.5258C35.4446 35 37 33.5286 37 31.7136V3.28639C37 1.47136 35.4446 0 33.5258 0Z" fill="#3178C6"/>
<path fill-rule="evenodd" clip-rule="evenodd" d="M22.5813 27.7617V31.2942C23.1894 31.5887 23.9084 31.8095 24.7385 31.9567C25.5687 32.1038 26.4435 32.1775 27.3633 32.1775C28.2597 32.1775 29.1113 32.0964 29.9181 31.9345C30.7248 31.7727 31.4321 31.5058 32.0402 31.1343C32.6481 30.7625 33.1294 30.2768 33.484 29.677C33.8386 29.0772 34.0161 28.3359 34.0161 27.4526C34.0161 26.8124 33.9147 26.2512 33.712 25.7692C33.5094 25.2873 33.2171 24.8585 32.8352 24.4833C32.4533 24.1079 31.9953 23.7712 31.4613 23.4731C30.9275 23.175 30.3253 22.8935 29.655 22.6287C29.1638 22.4373 28.7234 22.2515 28.3339 22.0711C27.9441 21.8909 27.6128 21.7069 27.34 21.5192C27.0672 21.3316 26.8568 21.1328 26.7085 20.9232C26.5605 20.7134 26.4865 20.476 26.4865 20.2111C26.4865 19.9682 26.5526 19.7492 26.6852 19.5542C26.8178 19.3592 27.0049 19.1919 27.2464 19.0519C27.4881 18.9122 27.7842 18.8037 28.135 18.7264C28.4858 18.6491 28.8755 18.6105 29.3042 18.6105C29.6161 18.6105 29.9453 18.6325 30.2922 18.6767C30.639 18.7208 30.9879 18.7889 31.3386 18.8809C31.6894 18.9729 32.0305 19.0888 32.3616 19.2287C32.6929 19.3684 32.9989 19.5304 33.2794 19.7144V16.4137C32.7104 16.2075 32.0889 16.055 31.4147 15.9555C30.7404 15.8562 29.9668 15.8065 29.0937 15.8065C28.2051 15.8065 27.3633 15.8966 26.5683 16.077C25.7733 16.2573 25.0737 16.5388 24.4695 16.9214C23.8656 17.3042 23.3881 17.7917 23.0374 18.3841C22.6866 18.9766 22.5112 19.6849 22.5112 20.5092C22.5112 21.5616 22.8327 22.4593 23.4758 23.2026C24.1189 23.946 25.0951 24.5752 26.4046 25.0903C26.9191 25.2891 27.3985 25.4841 27.8427 25.6755C28.2871 25.8667 28.6709 26.0655 28.9944 26.2715C29.3178 26.4776 29.5731 26.7021 29.7601 26.9449C29.9473 27.1878 30.0408 27.4637 30.0408 27.7728C30.0408 28.001 29.9823 28.2126 29.8654 28.4076C29.7485 28.6026 29.5712 28.7719 29.3335 28.9153C29.0956 29.0588 28.7995 29.1711 28.4449 29.252C28.0903 29.3331 27.6751 29.3735 27.1997 29.3735C26.3891 29.3735 25.5863 29.2392 24.7911 28.9705C23.9961 28.7019 23.2596 28.2991 22.5813 27.7617ZM16.3503 18.9709H21.1577V16.0624H7.75806V18.9709H12.542V31.9217H16.3503V18.9709Z" fill="white"/>
</svg>
